<?xml version="1.0" encoding="iso-8859-1"?>
<!-- Generator: Adobe Illustrator 18.0.0, SVG Export Plug-In . SVG Version: 6.00 Build 0)  -->
<!DOCTYPE svg PUBLIC "-//W3C//DTD SVG 1.1//EN" "http://www.w3.org/Graphics/SVG/1.1/DTD/svg11.dtd">
<svg version="1.1" id="Capa_1" xmlns="http://www.w3.org/2000/svg" xmlns:xlink="http://www.w3.org/1999/xlink" x="0px" y="0px"
	 viewBox="0 0 477.728 477.728" style="enable-background:new 0 0 477.728 477.728;" xml:space="preserve">
<g>
	<path d="M372.812,122.353c-8.048,0-15.57,2.282-21.964,6.226V71.59c0-5.523-4.478-10-10-10h-169.55l-33.186-44.711
		c-6.628-8.946-16.343-14.776-27.355-16.415c-11.012-1.641-22.005,1.107-30.95,7.736c-18.468,13.682-22.361,39.838-8.68,58.306
		L83.548,83.27c3.287,4.438,9.55,5.37,13.988,2.082c4.438-3.288,5.37-9.551,2.082-13.988L87.198,54.6
		c-7.117-9.607-5.092-23.213,4.516-30.33c4.653-3.448,10.373-4.877,16.1-4.024c5.729,0.853,10.782,3.885,14.234,8.546l33.102,44.598
		V291.84c0,26.994,17.867,49.891,42.395,57.492c4.039,16.229,15.148,30.038,30.153,37.489v44.902
		c-22.631,3.948-44.097,13.64-62.059,28.247c-3.283,2.67-4.53,7.118-3.113,11.106c1.417,3.988,5.19,6.652,9.423,6.652h162.1
		c4.232,0,8.006-2.664,9.423-6.652c1.417-3.988,0.17-8.436-3.113-11.106c-17.961-14.606-39.427-24.298-62.058-28.246v-44.898
		c15.004-7.448,26.12-21.262,30.159-37.495c21.285-6.598,37.535-24.721,41.462-47.039c4.008,5.54,9.233,10.238,15.457,13.705
		c1.541,0.858,3.21,1.266,4.857,1.266c3.51,0,6.916-1.852,8.745-5.136c2.688-4.825,0.954-10.915-3.87-13.603
		c-8.39-4.673-13.678-13.189-14.146-22.781c-0.468-9.592,3.967-18.583,11.861-24.05l28.281-19.585
		c0.493-0.341,0.954-0.726,1.378-1.15c7.926-7.926,12.291-18.464,12.291-29.672v-36.969
		C414.775,141.178,395.951,122.353,372.812,122.353z M175.149,138.32c13.779,4.71,29.067,3.723,42.191-3.007
		c4.794-2.456,10.169-3.753,15.544-3.753c5.382,0,10.761,1.298,15.549,3.75c7.595,3.896,16.125,5.956,24.668,5.956
		c8.433,0,16.851-2.006,24.369-5.804c0.103-0.048,0.205-0.099,0.306-0.15c0.377-0.193,0.763-0.366,1.146-0.544v20.155H175.149
		V138.32z M318.922,132.041c3.426,0.569,6.784,1.654,9.942,3.273l1.984,1.016v18.592h-11.927V132.041z M330.848,81.59v32.919
		c-3.884-1.328-7.884-2.206-11.927-2.625v-10.441c0-5.523-4.478-10-10-10s-10,4.477-10,10v12.097
		c-3.413,0.939-6.757,2.2-9.969,3.821c-0.105,0.049-0.21,0.101-0.314,0.154c-4.781,2.454-10.154,3.75-15.537,3.75
		s-10.756-1.297-15.545-3.753c-7.603-3.894-16.134-5.953-24.672-5.953c-7.279,0-14.55,1.511-21.253,4.371l-25.489-34.34H330.848z
		 M190.631,121.194c-4.652-0.278-9.258-1.504-13.504-3.681l-1.978-1.014v-16.164L190.631,121.194z M208.682,457.728
		c13.334-5.247,27.628-8.009,42.1-8.009h4.432c14.47,0,28.767,2.763,42.1,8.009H208.682z M255.214,429.719h-4.432
		c-1.029,0-2.058,0.014-3.085,0.038v-37.281c1.758,0.162,3.526,0.251,5.305,0.251c1.776,0,3.542-0.09,5.298-0.251v37.28
		C257.272,429.733,256.243,429.719,255.214,429.719z M265.069,370.735c-7.742,2.645-16.408,2.639-24.119,0.005
		c-9.38-3.222-16.952-10.088-21.236-18.726h66.576C282.006,360.65,274.437,367.516,265.069,370.735z M330.848,291.84
		c0,22.152-18.021,40.174-40.174,40.174h-75.352c-22.152,0-40.174-18.022-40.174-40.174V174.922h123.772v62.526
		c0,5.523,4.478,10,10,10s10-4.477,10-10v-62.526h11.927V291.84z M394.775,201.285c0,5.592-2.076,10.866-5.864,14.94l-27.473,19.025
		c-4.097,2.837-7.642,6.233-10.59,10.034v-66.709v-14.258c0-12.11,9.853-21.963,21.964-21.963c12.11,0,21.963,9.853,21.963,21.963
		V201.285z"/>
	<path d="M308.922,261.448c-5.522,0-10,4.477-10,10v23.183c0,5.523,4.478,10,10,10s10-4.477,10-10v-23.183
		C318.922,265.925,314.444,261.448,308.922,261.448z"/>
</g>
<g>
</g>
<g>
</g>
<g>
</g>
<g>
</g>
<g>
</g>
<g>
</g>
<g>
</g>
<g>
</g>
<g>
</g>
<g>
</g>
<g>
</g>
<g>
</g>
<g>
</g>
<g>
</g>
<g>
</g>
</svg>
