<svg id="visual" viewBox="0 0 675 900" width="675" height="900" xmlns="http://www.w3.org/2000/svg" xmlns:xlink="http://www.w3.org/1999/xlink" version="1.1"><g stroke-width="1" stroke-linejoin="bevel"><path d="M317 431L260 388L253 490Z" fill="#f6f7f8" stroke="#f6f7f8"></path><path d="M260 388L192 430L253 490Z" fill="#f6f7f8" stroke="#f6f7f8"></path><path d="M317 431L274 341L260 388Z" fill="#a6b3be" stroke="#a6b3be"></path><path d="M260 388L166 393L192 430Z" fill="#d2d8de" stroke="#d2d8de"></path><path d="M217 338L166 393L260 388Z" fill="#afbac4" stroke="#afbac4"></path><path d="M253 490L365 490L317 431Z" fill="#afbac4" stroke="#afbac4"></path><path d="M317 431L392 369L274 341Z" fill="#f6f7f8" stroke="#f6f7f8"></path><path d="M274 341L217 338L260 388Z" fill="#a6b3be" stroke="#a6b3be"></path><path d="M218 616L295 552L253 490Z" fill="#e4e7eb" stroke="#e4e7eb"></path><path d="M253 490L295 552L365 490Z" fill="#c0c9d1" stroke="#c0c9d1"></path><path d="M109 412L126 476L192 430Z" fill="#a6b3be" stroke="#a6b3be"></path><path d="M192 430L148 524L253 490Z" fill="#d2d8de" stroke="#d2d8de"></path><path d="M365 490L392 369L317 431Z" fill="#f6f7f8" stroke="#f6f7f8"></path><path d="M126 476L148 524L192 430Z" fill="#f6f7f8" stroke="#f6f7f8"></path><path d="M348 275L286 294L274 341Z" fill="#d2d8de" stroke="#d2d8de"></path><path d="M274 341L286 294L217 338Z" fill="#b8c2cb" stroke="#b8c2cb"></path><path d="M366 564L407 505L365 490Z" fill="#afbac4" stroke="#afbac4"></path><path d="M365 490L445 404L392 369Z" fill="#edeff2" stroke="#edeff2"></path><path d="M137 308L109 412L166 393Z" fill="#f6f7f8" stroke="#f6f7f8"></path><path d="M166 393L109 412L192 430Z" fill="#d2d8de" stroke="#d2d8de"></path><path d="M295 552L366 564L365 490Z" fill="#c9d0d8" stroke="#c9d0d8"></path><path d="M218 616L297 597L295 552Z" fill="#f6f7f8" stroke="#f6f7f8"></path><path d="M295 552L297 597L366 564Z" fill="#afbac4" stroke="#afbac4"></path><path d="M58 513L148 564L148 524Z" fill="#c0c9d1" stroke="#c0c9d1"></path><path d="M148 524L148 564L253 490Z" fill="#e4e7eb" stroke="#e4e7eb"></path><path d="M58 513L148 524L126 476Z" fill="#edeff2" stroke="#edeff2"></path><path d="M148 564L218 616L253 490Z" fill="#dbe0e5" stroke="#dbe0e5"></path><path d="M407 505L445 404L365 490Z" fill="#ffffff" stroke="#ffffff"></path><path d="M392 369L348 275L274 341Z" fill="#dbe0e5" stroke="#dbe0e5"></path><path d="M422 297L348 275L392 369Z" fill="#d2d8de" stroke="#d2d8de"></path><path d="M166 239L137 308L217 338Z" fill="#edeff2" stroke="#edeff2"></path><path d="M217 338L137 308L166 393Z" fill="#dbe0e5" stroke="#dbe0e5"></path><path d="M166 239L217 338L286 294Z" fill="#c9d0d8" stroke="#c9d0d8"></path><path d="M366 564L437 510L407 505Z" fill="#e4e7eb" stroke="#e4e7eb"></path><path d="M407 505L470 423L445 404Z" fill="#dbe0e5" stroke="#dbe0e5"></path><path d="M348 275L332 262L286 294Z" fill="#e4e7eb" stroke="#e4e7eb"></path><path d="M437 510L470 423L407 505Z" fill="#b8c2cb" stroke="#b8c2cb"></path><path d="M445 404L422 297L392 369Z" fill="#a6b3be" stroke="#a6b3be"></path><path d="M86 218L103 310L137 308Z" fill="#ffffff" stroke="#ffffff"></path><path d="M137 308L103 310L109 412Z" fill="#a6b3be" stroke="#a6b3be"></path><path d="M499 399L422 297L445 404Z" fill="#ffffff" stroke="#ffffff"></path><path d="M348 275L388 207L332 262Z" fill="#afbac4" stroke="#afbac4"></path><path d="M148 564L193 639L218 616Z" fill="#a6b3be" stroke="#a6b3be"></path><path d="M303 698L371 642L297 597Z" fill="#b8c2cb" stroke="#b8c2cb"></path><path d="M0 422L58 513L109 412Z" fill="#c9d0d8" stroke="#c9d0d8"></path><path d="M109 412L58 513L126 476Z" fill="#e4e7eb" stroke="#e4e7eb"></path><path d="M148 564L103 603L193 639Z" fill="#d2d8de" stroke="#d2d8de"></path><path d="M265 207L166 239L286 294Z" fill="#afbac4" stroke="#afbac4"></path><path d="M297 597L371 642L366 564Z" fill="#a6b3be" stroke="#a6b3be"></path><path d="M366 564L462 636L437 510Z" fill="#edeff2" stroke="#edeff2"></path><path d="M303 698L297 597L218 616Z" fill="#edeff2" stroke="#edeff2"></path><path d="M58 513L103 603L148 564Z" fill="#c0c9d1" stroke="#c0c9d1"></path><path d="M332 262L265 207L286 294Z" fill="#ffffff" stroke="#ffffff"></path><path d="M365 189L265 207L332 262Z" fill="#dbe0e5" stroke="#dbe0e5"></path><path d="M523 462L499 399L470 423Z" fill="#edeff2" stroke="#edeff2"></path><path d="M470 423L499 399L445 404Z" fill="#a6b3be" stroke="#a6b3be"></path><path d="M523 462L470 423L437 510Z" fill="#a6b3be" stroke="#a6b3be"></path><path d="M0 310L37 343L103 310Z" fill="#d2d8de" stroke="#d2d8de"></path><path d="M103 310L37 343L109 412Z" fill="#d2d8de" stroke="#d2d8de"></path><path d="M533 511L523 462L437 510Z" fill="#dbe0e5" stroke="#dbe0e5"></path><path d="M265 746L303 698L193 639Z" fill="#edeff2" stroke="#edeff2"></path><path d="M193 639L303 698L218 616Z" fill="#f6f7f8" stroke="#f6f7f8"></path><path d="M473 246L388 207L422 297Z" fill="#b8c2cb" stroke="#b8c2cb"></path><path d="M422 297L388 207L348 275Z" fill="#c9d0d8" stroke="#c9d0d8"></path><path d="M411 788L420 653L371 642Z" fill="#d2d8de" stroke="#d2d8de"></path><path d="M371 642L420 653L366 564Z" fill="#edeff2" stroke="#edeff2"></path><path d="M265 207L213 180L166 239Z" fill="#c9d0d8" stroke="#c9d0d8"></path><path d="M166 239L86 218L137 308Z" fill="#d2d8de" stroke="#d2d8de"></path><path d="M300 140L213 180L265 207Z" fill="#afbac4" stroke="#afbac4"></path><path d="M0 385L0 422L109 412Z" fill="#dbe0e5" stroke="#dbe0e5"></path><path d="M58 513L0 573L103 603Z" fill="#a6b3be" stroke="#a6b3be"></path><path d="M388 207L365 189L332 262Z" fill="#afbac4" stroke="#afbac4"></path><path d="M37 343L0 385L109 412Z" fill="#a6b3be" stroke="#a6b3be"></path><path d="M462 636L510 567L437 510Z" fill="#d2d8de" stroke="#d2d8de"></path><path d="M510 567L533 511L437 510Z" fill="#f6f7f8" stroke="#f6f7f8"></path><path d="M420 653L462 636L366 564Z" fill="#a6b3be" stroke="#a6b3be"></path><path d="M541 262L473 246L422 297Z" fill="#a6b3be" stroke="#a6b3be"></path><path d="M388 207L435 188L365 189Z" fill="#e4e7eb" stroke="#e4e7eb"></path><path d="M541 262L422 297L499 399Z" fill="#c9d0d8" stroke="#c9d0d8"></path><path d="M56 669L151 699L103 603Z" fill="#b8c2cb" stroke="#b8c2cb"></path><path d="M103 603L151 699L193 639Z" fill="#ffffff" stroke="#ffffff"></path><path d="M181 129L86 218L166 239Z" fill="#edeff2" stroke="#edeff2"></path><path d="M37 343L0 310L0 385Z" fill="#afbac4" stroke="#afbac4"></path><path d="M0 422L0 558L58 513Z" fill="#dbe0e5" stroke="#dbe0e5"></path><path d="M0 245L0 310L103 310Z" fill="#f6f7f8" stroke="#f6f7f8"></path><path d="M0 558L0 573L58 513Z" fill="#afbac4" stroke="#afbac4"></path><path d="M369 109L300 140L365 189Z" fill="#edeff2" stroke="#edeff2"></path><path d="M365 189L300 140L265 207Z" fill="#b8c2cb" stroke="#b8c2cb"></path><path d="M213 180L181 129L166 239Z" fill="#e4e7eb" stroke="#e4e7eb"></path><path d="M473 246L435 188L388 207Z" fill="#edeff2" stroke="#edeff2"></path><path d="M166 732L265 746L193 639Z" fill="#d2d8de" stroke="#d2d8de"></path><path d="M303 698L411 788L371 642Z" fill="#e4e7eb" stroke="#e4e7eb"></path><path d="M420 653L513 703L462 636Z" fill="#e4e7eb" stroke="#e4e7eb"></path><path d="M47 735L166 732L151 699Z" fill="#f6f7f8" stroke="#f6f7f8"></path><path d="M151 699L166 732L193 639Z" fill="#dbe0e5" stroke="#dbe0e5"></path><path d="M0 573L56 669L103 603Z" fill="#afbac4" stroke="#afbac4"></path><path d="M194 108L181 129L213 180Z" fill="#f6f7f8" stroke="#f6f7f8"></path><path d="M597 353L541 262L499 399Z" fill="#c9d0d8" stroke="#c9d0d8"></path><path d="M473 246L505 199L435 188Z" fill="#a6b3be" stroke="#a6b3be"></path><path d="M597 353L499 399L523 462Z" fill="#f6f7f8" stroke="#f6f7f8"></path><path d="M0 173L0 245L86 218Z" fill="#a6b3be" stroke="#a6b3be"></path><path d="M86 218L0 245L103 310Z" fill="#ffffff" stroke="#ffffff"></path><path d="M187 787L294 771L265 746Z" fill="#c9d0d8" stroke="#c9d0d8"></path><path d="M265 746L294 771L303 698Z" fill="#c0c9d1" stroke="#c0c9d1"></path><path d="M510 567L597 503L533 511Z" fill="#edeff2" stroke="#edeff2"></path><path d="M533 511L597 503L523 462Z" fill="#b8c2cb" stroke="#b8c2cb"></path><path d="M622 631L597 503L510 567Z" fill="#edeff2" stroke="#edeff2"></path><path d="M300 140L194 108L213 180Z" fill="#afbac4" stroke="#afbac4"></path><path d="M49 115L0 173L86 218Z" fill="#c9d0d8" stroke="#c9d0d8"></path><path d="M541 262L505 199L473 246Z" fill="#dbe0e5" stroke="#dbe0e5"></path><path d="M435 188L369 109L365 189Z" fill="#c9d0d8" stroke="#c9d0d8"></path><path d="M263 44L168 76L194 108Z" fill="#edeff2" stroke="#edeff2"></path><path d="M619 487L597 353L523 462Z" fill="#a6b3be" stroke="#a6b3be"></path><path d="M541 262L564 259L505 199Z" fill="#dbe0e5" stroke="#dbe0e5"></path><path d="M466 53L369 109L435 188Z" fill="#b8c2cb" stroke="#b8c2cb"></path><path d="M594 279L564 259L541 262Z" fill="#c0c9d1" stroke="#c0c9d1"></path><path d="M143 811L187 787L166 732Z" fill="#c0c9d1" stroke="#c0c9d1"></path><path d="M166 732L187 787L265 746Z" fill="#b8c2cb" stroke="#b8c2cb"></path><path d="M675 514L619 487L597 503Z" fill="#afbac4" stroke="#afbac4"></path><path d="M597 503L619 487L523 462Z" fill="#afbac4" stroke="#afbac4"></path><path d="M485 766L513 703L420 653Z" fill="#c0c9d1" stroke="#c0c9d1"></path><path d="M462 636L513 703L510 567Z" fill="#afbac4" stroke="#afbac4"></path><path d="M675 318L594 279L597 353Z" fill="#dbe0e5" stroke="#dbe0e5"></path><path d="M597 353L594 279L541 262Z" fill="#b8c2cb" stroke="#b8c2cb"></path><path d="M625 146L506 162L505 199Z" fill="#ffffff" stroke="#ffffff"></path><path d="M625 146L505 199L564 259Z" fill="#edeff2" stroke="#edeff2"></path><path d="M505 199L506 162L435 188Z" fill="#f6f7f8" stroke="#f6f7f8"></path><path d="M0 700L47 735L56 669Z" fill="#a6b3be" stroke="#a6b3be"></path><path d="M56 669L47 735L151 699Z" fill="#ffffff" stroke="#ffffff"></path><path d="M0 573L0 700L56 669Z" fill="#dbe0e5" stroke="#dbe0e5"></path><path d="M49 115L86 218L181 129Z" fill="#a6b3be" stroke="#a6b3be"></path><path d="M263 44L194 108L300 140Z" fill="#afbac4" stroke="#afbac4"></path><path d="M194 108L168 76L181 129Z" fill="#e4e7eb" stroke="#e4e7eb"></path><path d="M341 818L411 788L294 771Z" fill="#c9d0d8" stroke="#c9d0d8"></path><path d="M294 771L411 788L303 698Z" fill="#e4e7eb" stroke="#e4e7eb"></path><path d="M0 700L0 717L47 735Z" fill="#edeff2" stroke="#edeff2"></path><path d="M323 828L341 818L294 771Z" fill="#edeff2" stroke="#edeff2"></path><path d="M168 76L49 115L181 129Z" fill="#d2d8de" stroke="#d2d8de"></path><path d="M47 735L143 811L166 732Z" fill="#afbac4" stroke="#afbac4"></path><path d="M229 900L323 828L294 771Z" fill="#c0c9d1" stroke="#c0c9d1"></path><path d="M88 860L143 811L47 735Z" fill="#b8c2cb" stroke="#b8c2cb"></path><path d="M229 900L294 771L187 787Z" fill="#edeff2" stroke="#edeff2"></path><path d="M341 818L426 853L411 788Z" fill="#dbe0e5" stroke="#dbe0e5"></path><path d="M411 788L485 766L420 653Z" fill="#afbac4" stroke="#afbac4"></path><path d="M513 703L622 631L510 567Z" fill="#edeff2" stroke="#edeff2"></path><path d="M426 853L485 766L411 788Z" fill="#afbac4" stroke="#afbac4"></path><path d="M485 766L548 715L513 703Z" fill="#b8c2cb" stroke="#b8c2cb"></path><path d="M369 109L263 44L300 140Z" fill="#c0c9d1" stroke="#c0c9d1"></path><path d="M168 76L74 38L49 115Z" fill="#dbe0e5" stroke="#dbe0e5"></path><path d="M285 0L263 44L348 0Z" fill="#afbac4" stroke="#afbac4"></path><path d="M548 715L622 631L513 703Z" fill="#afbac4" stroke="#afbac4"></path><path d="M548 715L624 634L622 631Z" fill="#ffffff" stroke="#ffffff"></path><path d="M675 514L675 453L619 487Z" fill="#afbac4" stroke="#afbac4"></path><path d="M675 514L597 503L675 594Z" fill="#afbac4" stroke="#afbac4"></path><path d="M619 487L675 402L597 353Z" fill="#edeff2" stroke="#edeff2"></path><path d="M675 453L675 402L619 487Z" fill="#f6f7f8" stroke="#f6f7f8"></path><path d="M675 594L597 503L622 631Z" fill="#dbe0e5" stroke="#dbe0e5"></path><path d="M675 402L675 318L597 353Z" fill="#d2d8de" stroke="#d2d8de"></path><path d="M606 68L504 58L506 162Z" fill="#e4e7eb" stroke="#e4e7eb"></path><path d="M504 58L466 53L506 162Z" fill="#c0c9d1" stroke="#c0c9d1"></path><path d="M506 162L466 53L435 188Z" fill="#e4e7eb" stroke="#e4e7eb"></path><path d="M624 634L675 594L622 631Z" fill="#edeff2" stroke="#edeff2"></path><path d="M675 701L675 594L624 634Z" fill="#f6f7f8" stroke="#f6f7f8"></path><path d="M348 0L263 44L369 109Z" fill="#e4e7eb" stroke="#e4e7eb"></path><path d="M263 44L193 0L168 76Z" fill="#dbe0e5" stroke="#dbe0e5"></path><path d="M333 900L341 818L323 828Z" fill="#dbe0e5" stroke="#dbe0e5"></path><path d="M384 900L426 853L341 818Z" fill="#c9d0d8" stroke="#c9d0d8"></path><path d="M547 819L623 731L548 715Z" fill="#dbe0e5" stroke="#dbe0e5"></path><path d="M548 715L623 731L624 634Z" fill="#c9d0d8" stroke="#c9d0d8"></path><path d="M171 0L74 38L168 76Z" fill="#f6f7f8" stroke="#f6f7f8"></path><path d="M49 115L0 64L0 173Z" fill="#c9d0d8" stroke="#c9d0d8"></path><path d="M285 0L193 0L263 44Z" fill="#b8c2cb" stroke="#b8c2cb"></path><path d="M466 53L348 0L369 109Z" fill="#d2d8de" stroke="#d2d8de"></path><path d="M193 0L171 0L168 76Z" fill="#c9d0d8" stroke="#c9d0d8"></path><path d="M675 225L564 259L594 279Z" fill="#ffffff" stroke="#ffffff"></path><path d="M466 53L448 0L348 0Z" fill="#c0c9d1" stroke="#c0c9d1"></path><path d="M0 841L88 860L47 735Z" fill="#c9d0d8" stroke="#c9d0d8"></path><path d="M143 811L229 900L187 787Z" fill="#d2d8de" stroke="#d2d8de"></path><path d="M46 0L0 64L74 38Z" fill="#a6b3be" stroke="#a6b3be"></path><path d="M74 38L0 64L49 115Z" fill="#c0c9d1" stroke="#c0c9d1"></path><path d="M547 819L548 715L485 766Z" fill="#edeff2" stroke="#edeff2"></path><path d="M142 900L229 900L143 811Z" fill="#f6f7f8" stroke="#f6f7f8"></path><path d="M675 318L675 225L594 279Z" fill="#c0c9d1" stroke="#c0c9d1"></path><path d="M675 225L625 146L564 259Z" fill="#b8c2cb" stroke="#b8c2cb"></path><path d="M229 900L333 900L323 828Z" fill="#d2d8de" stroke="#d2d8de"></path><path d="M426 853L547 819L485 766Z" fill="#f6f7f8" stroke="#f6f7f8"></path><path d="M471 900L547 819L426 853Z" fill="#f6f7f8" stroke="#f6f7f8"></path><path d="M333 900L384 900L341 818Z" fill="#edeff2" stroke="#edeff2"></path><path d="M504 58L448 0L466 53Z" fill="#f6f7f8" stroke="#f6f7f8"></path><path d="M548 0L448 0L504 58Z" fill="#c0c9d1" stroke="#c0c9d1"></path><path d="M88 860L142 900L143 811Z" fill="#d2d8de" stroke="#d2d8de"></path><path d="M0 717L0 841L47 735Z" fill="#c0c9d1" stroke="#c0c9d1"></path><path d="M88 860L87 900L142 900Z" fill="#b8c2cb" stroke="#b8c2cb"></path><path d="M675 743L675 701L623 731Z" fill="#c0c9d1" stroke="#c0c9d1"></path><path d="M623 731L675 701L624 634Z" fill="#e4e7eb" stroke="#e4e7eb"></path><path d="M171 0L46 0L74 38Z" fill="#edeff2" stroke="#edeff2"></path><path d="M0 900L87 900L88 860Z" fill="#e4e7eb" stroke="#e4e7eb"></path><path d="M675 66L606 68L625 146Z" fill="#f6f7f8" stroke="#f6f7f8"></path><path d="M625 146L606 68L506 162Z" fill="#c9d0d8" stroke="#c9d0d8"></path><path d="M384 900L471 900L426 853Z" fill="#edeff2" stroke="#edeff2"></path><path d="M637 833L675 743L623 731Z" fill="#edeff2" stroke="#edeff2"></path><path d="M675 225L675 138L625 146Z" fill="#c0c9d1" stroke="#c0c9d1"></path><path d="M637 833L623 731L547 819Z" fill="#a6b3be" stroke="#a6b3be"></path><path d="M46 0L0 0L0 64Z" fill="#edeff2" stroke="#edeff2"></path><path d="M578 0L548 0L606 68Z" fill="#c9d0d8" stroke="#c9d0d8"></path><path d="M606 68L548 0L504 58Z" fill="#b8c2cb" stroke="#b8c2cb"></path><path d="M0 841L0 900L88 860Z" fill="#d2d8de" stroke="#d2d8de"></path><path d="M675 0L578 0L606 68Z" fill="#d2d8de" stroke="#d2d8de"></path><path d="M579 900L637 833L547 819Z" fill="#afbac4" stroke="#afbac4"></path><path d="M471 900L558 900L547 819Z" fill="#e4e7eb" stroke="#e4e7eb"></path><path d="M675 138L675 66L625 146Z" fill="#c0c9d1" stroke="#c0c9d1"></path><path d="M558 900L579 900L547 819Z" fill="#d2d8de" stroke="#d2d8de"></path><path d="M675 900L675 846L637 833Z" fill="#d2d8de" stroke="#d2d8de"></path><path d="M637 833L675 846L675 743Z" fill="#afbac4" stroke="#afbac4"></path><path d="M675 66L675 0L606 68Z" fill="#c9d0d8" stroke="#c9d0d8"></path><path d="M579 900L675 900L637 833Z" fill="#b8c2cb" stroke="#b8c2cb"></path></g></svg>