<?xml version="1.0" encoding="iso-8859-1"?>
<!-- Generator: Adobe Illustrator 19.0.0, SVG Export Plug-In . SVG Version: 6.00 Build 0)  -->
<svg version="1.1" id="Layer_1" xmlns="http://www.w3.org/2000/svg" xmlns:xlink="http://www.w3.org/1999/xlink" x="0px" y="0px"
	 viewBox="0 0 310.646 310.646" style="enable-background:new 0 0 310.646 310.646;" xml:space="preserve">
<g>
	<g>
		<g>
			<path d="M240.285,148.915h-0.224v-24.077c0-4.971-4.029-9-9-9H49.039c-4.971,0-9,4.029-9,9v103.801
				c0,27.059,14.405,50.812,35.947,64.007H73.05c-4.971,0-9,4.029-9,9s4.029,9,9,9h134c4.971,0,9-4.029,9-9s-4.029-9-9-9h-2.935
				c17.35-10.627,30.066-28.105,34.359-48.644h1.812c16.72,0,30.322-13.603,30.322-30.322v-34.443
				C270.607,162.518,257.005,148.915,240.285,148.915z M222.061,228.639c0,31.434-25.573,57.007-57.007,57.007h-50.008v0
				c-31.434,0-57.007-25.573-57.007-57.007v-94.801h164.022V228.639z M252.607,213.68c0,6.794-5.528,12.322-12.322,12.322h-0.224
				v-59.087h0.224c6.794,0,12.322,5.528,12.322,12.322V213.68z"/>
			<path d="M122.896,85.819c-0.681,2.027-5.264,3.847-8.188,4.251c-4.934,0.608-8.439,5.1-7.831,10.033
				c0.562,4.56,4.441,7.9,8.921,7.9c0.367,0,0.739-0.022,1.112-0.069c1.861-0.229,18.318-2.634,23.001-16.245
				c3.843-11.171-1.959-24.271-17.739-40.051c-9.943-9.943-14.69-18.68-13.369-24.6c1.389-6.222,9.72-9.444,9.98-9.542
				c4.664-1.633,7.143-6.728,5.539-11.41c-1.61-4.703-6.729-7.208-11.431-5.599c-6.622,2.268-18.625,9.542-21.609,22.419
				c-2.909,12.551,3.202,26.5,18.161,41.459C121.651,76.573,123.643,83.594,122.896,85.819z"/>
			<path d="M171.377,85.819c-0.681,2.027-5.264,3.847-8.188,4.251c-4.934,0.608-8.439,5.1-7.831,10.033
				c0.562,4.56,4.441,7.9,8.921,7.9c0.367,0,0.739-0.022,1.112-0.069c1.861-0.229,18.318-2.634,23.001-16.245
				c3.843-11.171-1.959-24.271-17.739-40.051c-9.943-9.943-14.69-18.68-13.369-24.6c1.389-6.222,9.72-9.444,9.98-9.542
				c4.664-1.633,7.143-6.728,5.539-11.41c-1.611-4.703-6.728-7.208-11.431-5.599c-6.622,2.268-18.625,9.542-21.609,22.419
				c-2.909,12.551,3.202,26.5,18.161,41.459C170.133,76.573,172.125,83.594,171.377,85.819z"/>
		</g>
	</g>
</g>
<g>
</g>
<g>
</g>
<g>
</g>
<g>
</g>
<g>
</g>
<g>
</g>
<g>
</g>
<g>
</g>
<g>
</g>
<g>
</g>
<g>
</g>
<g>
</g>
<g>
</g>
<g>
</g>
<g>
</g>
</svg>
