<?xml version="1.0" encoding="iso-8859-1"?>
<!-- Generator: Adobe Illustrator 18.0.0, SVG Export Plug-In . SVG Version: 6.00 Build 0)  -->
<!DOCTYPE svg PUBLIC "-//W3C//DTD SVG 1.1//EN" "http://www.w3.org/Graphics/SVG/1.1/DTD/svg11.dtd">
<svg version="1.1" id="Capa_1" xmlns="http://www.w3.org/2000/svg" xmlns:xlink="http://www.w3.org/1999/xlink" x="0px" y="0px"
	 viewBox="0 0 265.708 265.708" style="enable-background:new 0 0 265.708 265.708;" xml:space="preserve">
<g>
	<path d="M189.17,6.859c-7.938-7.252-18.685-8.262-28.514-5.315c-4.295,0.403-8.311,1.246-11.104,2.34
		c-6.203,2.43-10.244,7.135-12.812,12.736c-22.821-2.346-46.792,0.08-67.31,7.456c-2.241,0.805-1.38,3.7,0.82,3.568
		c0.003,0.005-0.001,0.009,0.003,0.014c21.638,37.284-15.721,74.224-1.772,112.877c7.279,20.17,25.625,34.237,46.257,37.651
		c0.321,11.9,0.938,23.83,0.322,35.726c-0.486,9.371-2.187,18.531-3.596,27.743c-13.627-0.909-26.748,1.638-33.568,14.8
		c-0.795,1.535-0.098,3.291,1.556,3.825c13.738,4.429,27.573,5.919,41.982,5.29c8.325-0.363,28.984,0.192,36.235-5.035
		c14.974-10.791-10.558-16.963-21.032-17.492c-3.35-21.952-5.789-41.999-2.718-64.834c17.443-3.121,34.084-15.027,40.763-31.607
		c10.376-25.756-0.847-51.988-4.439-78.733C201.494,68.36,209.685,25.598,189.17,6.859z M163.941,36.84
		c-3.555,13.052-3.655,26.076-1.742,39.724c-24.867-11.199-54.559-10.34-80.589-3.537c2.094-13.978,2.497-27.509-2.625-39.134
		c9.665,6.585,21.01,8.199,33.295,8.542C129.483,42.915,147.612,42.673,163.941,36.84z M159.566,80.496
		c-23.416,11.97-54.966,7.368-78.071-3.772C108.763,70.648,132.9,74.171,159.566,80.496z M76.888,26.866
		c20.007-2.508,38.284-2.958,57.162-1.787c-0.76,3.692-1.137,7.473-1.155,11.084c-0.001,0.157,0.112,0.232,0.141,0.371
		C112.622,38.78,90.966,37.317,76.888,26.866z M134.408,253.358c1.011,2.186,3.903,0.497,3.59-1.513
		c-0.186-1.193-0.363-2.347-0.546-3.526c3.282-0.178,6.563-0.076,9.843,0.603c6.68,6.387,6.251,9.281-1.286,8.682
		c-5.326,2.659-15.874,2.111-21.76,2.466c-13.619,0.821-26.852-0.281-39.956-3.917c6.155-8.536,16.647-10.278,26.807-11.909
		c-0.381,2.626-0.756,5.253-1.031,7.899c-0.265,2.547,3.422,2.671,4.195,0.568c8.228-22.386,8.567-50.659,3.3-74.085
		c4.106,0.476,8.257,0.677,12.446,0.255c0.199-0.02,0.395-0.079,0.594-0.101c-5.264,21.072-6.338,45.672,0.71,66.657
		c-0.218,1.107,0.139,2.248,1.088,2.784C133.051,249.941,133.639,251.694,134.408,253.358z M171.566,128.782
		c-2.162,29.953-30.362,48.737-59.037,42.279c-53.737-12.102-39.375-51.65-32.277-89.896c21.442,11.736,62.614,21.165,83.39,4.396
		C166.708,99.706,172.614,114.275,171.566,128.782z"/>
	<path d="M90.351,107.423c-4.357-0.554-5.041-2.046-2.05-4.475c1.322-0.715,0.418-3.011-1.043-2.474
		c-8.09,2.967-2.499,14.391,4.748,9.781C93.801,109.112,92.239,106.498,90.351,107.423z"/>
	<path d="M99.161,104.206c-1.673,0.59-1.019,3.121,0.74,2.684c2.101-0.521,5.46,0.52,4.855,3.704
		c-0.287,1.512-2.423,2.438-3.526,3.187c-1.543,1.047-0.855,3.146,0.905,3.34C111.115,118.113,109.655,100.506,99.161,104.206z"/>
	<path d="M101.006,131.841c-2.271,3.108-5.973-1.061-2.216-2.815c1.455-0.68,0.426-3.04-1.087-2.579
		c-3.746,1.141-5.91,5.867-3.037,9.068c2.96,3.298,8.346,1.677,9.581-2.308C104.882,131.16,102.123,130.312,101.006,131.841z"/>
	<path d="M145.567,138.743c-0.53,1.083-1.163,1.933-1.913,2.697l-0.231-0.767c1.057-1.604-1.438-3.588-2.695-2.079
		c-1.862,2.232-1.967,5.964,0.928,7.532c3.462,1.874,6.713-3.11,7.222-5.986C149.209,138.269,146.539,136.76,145.567,138.743z"/>
	<path d="M146.05,118.064c-4.379-2.814-8.953,1.336-11.28,4.821c-0.841,1.259,1.071,2.729,2.096,1.617
		c1.26-1.366,2.78-3.262,4.675-3.702c2.817-0.654,4.135,1.455,2.794,3.523c-1.061,1.637,0.947,3.017,2.4,2.4
		C150.609,125.078,148.858,119.869,146.05,118.064z"/>
</g>
<g>
</g>
<g>
</g>
<g>
</g>
<g>
</g>
<g>
</g>
<g>
</g>
<g>
</g>
<g>
</g>
<g>
</g>
<g>
</g>
<g>
</g>
<g>
</g>
<g>
</g>
<g>
</g>
<g>
</g>
</svg>
